<svg xmlns="http://www.w3.org/2000/svg" version="1.1" xmlns:xlink="http://www.w3.org/1999/xlink" xmlns:svgjs="http://svgjs.dev/svgjs" width="1000" height="1000" viewBox="0 0 1000 1000"><rect width="1000" height="1000" fill="#ffffff"></rect><g transform="matrix(0.7,0,0,0.7,150,150)"><svg viewBox="0 0 280 280" data-background-color="#fafafa" preserveAspectRatio="xMidYMid meet" height="1000" width="1000" xmlns="http://www.w3.org/2000/svg" xmlns:xlink="http://www.w3.org/1999/xlink"><defs></defs><g id="tight-bounds" transform="matrix(1,0,0,1,0,0)"><svg viewBox="0 0 280 280" height="280" width="280"><g><svg viewBox="0 0 280 280" height="280" width="280"><g><svg viewBox="0 0 280 280" height="280" width="280"><g><svg viewBox="0 0 280 280" height="280" width="280"><g><svg viewBox="0 0 280 280" height="280" width="280"><g transform="matrix(1,0,0,1,57.463629965306865,57.50420886156945)"><svg viewBox="0 0 165.07274006938627 164.9915822768611" height="164.9915822768611" width="165.07274006938627"><g><circle r="82" cx="82.49579113843055" cy="82.49579113843055" fill="#000000" data-fill-palette-color="accent"></circle><svg xmlns="http://www.w3.org/2000/svg" xmlns:xlink="http://www.w3.org/1999/xlink" version="1.1" x="24.766133537643064" y="24.766133537643057" viewBox="0 5.3597002029418945 512 501.3403015136719" style="enable-background:new 0 0 512 512;" xml:space="preserve" height="115.45931520157498" width="115.54047299410013" class="icon-o-0" data-fill-palette-color="quaternary" id="o-0"><g fill="#fafafa" data-fill-palette-color="quaternary"><polygon points="0,432 160,432 160,485.3 117.3,485.3 117.3,506.7 394.7,506.7 394.7,485.3 352,485.3 352,432 512,432 512,368    0,368  " fill="#fafafa" data-fill-palette-color="quaternary"></polygon><path d="M416.7 58.7c-5.1 8.5-11.2 17.8-18.5 28.2-23.8 33.6-57.1 73-87 102.9-11.2 11.2-21.5 20.6-31.2 28.6-6.8 5.6-13.1 10.2-19.2 14.2-11.4 7.4-21.8 12.1-31.5 14.2-0.9 10.2-4.4 20.4-10.4 29.8-11.6 18.2-38.6 48.7-88.3 48.7-11.3 0-23.2-1.6-35.4-4.8-9.2-2.4-16-10.4-16.9-19.8-0.9-9.4 4.2-18.4 12.7-22.5 5.8-2.8 19.6-11.5 22.2-32 2.6-19.8 16.8-54.8 53.8-60.4 1.7-0.3 3.4-0.4 5.1-0.5 2.4-8.8 6.9-18.2 13.3-28.2 3.8-5.9 8.6-12.4 14.2-19.2 8.1-9.8 17.4-20 28.6-31.2 12.6-12.6 31.7-30.2 53-48.1H0v287.9h512V58.7H416.7z" fill="#fafafa" data-fill-palette-color="quaternary"></path><path d="M249.1 214.8l-45.9-45.9c-14.6 22.5-14.3 36.1-7.6 45.7-7-5.9-16.1-8.9-25.5-7.5-31 4.7-35.8 42-35.8 42-4 31.1-25.8 44.5-34.1 48.5-1 0.5-0.8 2.1 0.3 2.4 58.1 15.1 87.6-14.7 100.4-34.7 6.9-10.7 9.5-24 5-35.9l-0.2-0.5c-1.1-2.9-2.7-5.5-4.5-8C210.9 229 224.9 230.5 249.1 214.8z" fill="#fafafa" data-fill-palette-color="quaternary"></path><path d="M216 151.5l50.4 50.4c8.8-7.2 18.6-16.1 29.6-27.2C354.5 116.3 425.2 21.9 410.6 7.3 396-7.3 301.6 63.4 243.1 121.9 232.1 133 223.2 142.7 216 151.5z" fill="#fafafa" data-fill-palette-color="quaternary"></path></g></svg></g></svg></g><path d="M15.783 76.36l-9.207 23.142-1.111-0.441 9.841-24.734 22.157 19.738-15.068-0.433 11.258 10.009-29.657-0.888 0.472-1.185 25.928 0.778-11.249-10.007 15.059 0.43zM44.169 80.564l-0.978-0.686 8.404-11.987-23.834-6.408 14.882 21.258-0.732 1.044-17.012-24.309 28.657 7.699zM57.135 61.938l10.96-10.869 0.842 0.848-11.809 11.711-19.606-19.771 0.848-0.842zM73.61 49.195l-0.653-1.001 12.259-8.001-19.741-14.812 5.908 25.267-1.067 0.697-6.752-28.891 23.739 17.803zM92.471 38.135l-0.45-1.107 13.562-5.51-16.545-18.313 0.969 25.931-1.181 0.48-1.104-29.649 19.898 22.013zM125.718 28.531l-0.095-1.191 14.592-1.171-10.263-22.444-6.884 25.019-1.271 0.102 7.876-28.606 12.345 26.984zM148.337 26.639l15.362 1.507-0.117 1.189-16.551-1.624 2.719-27.711 1.189 0.117zM173.317 10.662v0c0.737-2.461 1.89-4.053 3.458-4.775 1.574-0.72 3.757-0.662 6.549 0.174v0c1.959 0.587 3.384 1.568 4.274 2.944 0.884 1.374 1.282 3.181 1.194 5.42v0l-4.34 1.611-1.87-0.56 5.038-1.859c-0.019-1.856-0.428-3.278-1.227-4.266-0.799-0.988-1.936-1.703-3.412-2.145v0c-1.011-0.303-1.886-0.496-2.623-0.578-0.738-0.082-1.512-0.044-2.322 0.115-0.81 0.159-1.514 0.589-2.112 1.29-0.6 0.707-1.091 1.697-1.472 2.969v0c-0.335 1.119-0.117 2.266 0.654 3.44 0.773 1.167 1.806 2.277 3.098 3.329 1.286 1.051 2.578 2.117 3.876 3.199 1.298 1.082 2.31 2.272 3.036 3.571 0.735 1.294 0.908 2.59 0.519 3.888v0c-0.762 2.544-1.959 4.247-3.589 5.11-1.626 0.871-3.966 0.849-7.019-0.065v0c-2.487-0.745-4.292-1.833-5.415-3.265-1.117-1.43-1.627-3.277-1.531-5.542v0l1.206-0.138c-0.113 2.205 0.327 3.893 1.321 5.063 0.994 1.171 2.581 2.083 4.762 2.737v0c2.442 0.732 4.396 0.804 5.861 0.218 1.457-0.582 2.543-2.069 3.26-4.461v0c0.335-1.119 0.12-2.262-0.647-3.427-0.771-1.174-1.809-2.289-3.115-3.345-1.305-1.056-2.597-2.123-3.876-3.199-1.285-1.078-2.294-2.267-3.026-3.568-0.729-1.293-0.898-2.588-0.51-3.885zM216.979 21.713l-12.955 24.647-1.058-0.556 6.478-12.323-12.677-6.663-6.477 12.324-1.058-0.556 12.955-24.647 1.057 0.556-5.921 11.265 12.677 6.663 5.921-11.266zM210.434 51.832l0.782-0.903 11.069 9.58 8.8-23.058-22.661 12.641-0.964-0.834 25.913-14.45-10.575 27.725zM247.964 48.92l-20.549 18.789-0.807-0.882 20.549-18.789zM255.687 59.326l0.653 1-23.31 15.228-0.654-1zM264.347 72.582l0.937 1.434-18.431-3.923-4.183 20.218-0.937-1.434 4.183-20.218zM276.004 99.379l-25.795 10.485-0.45-1.107 12.897-5.243-5.392-13.266-12.898 5.243-0.45-1.107 25.795-10.486 0.45 1.107-11.79 4.793 5.392 13.266 11.791-4.792zM44.23 196.781l-9.362-23.423 1.119-0.448 10.005 25.033-30.04 0.938 11.372-10.186-15.245 0.495 22.415-20.016 0.476 1.193-19.599 17.507 15.245-0.495-11.372 10.187zM25.271 217.006l0.985-0.694 8.537 12.125 14.29-20.51-25.366 6.872-0.739-1.05 29.004-7.863-17.177 24.662zM42.61 237.054l11.119 10.991-0.847 0.857-11.976-11.838 19.826-20.058 0.857 0.847zM61.051 254.411l0.657-1.01 12.43 8.085 5.645-24.353-20.995 15.807-1.077-0.701 24.005-18.078-6.782 29.279zM83.861 267.505l0.452-1.118 13.746 5.561 0.889-24.982-17.589 19.526-1.191-0.481 20.109-22.331-1.064 30.035zM123.829 278.68l0.096-1.201 14.781 1.182-6.645-24.099-10.923 23.903-1.28-0.103 12.486-27.334 7.993 28.972zM150.326 278.156l15.561-1.526 0.117 1.2-16.759 1.643-2.752-28.068 1.199-0.118zM167.779 255.257v0c-0.747-2.493-0.656-4.482 0.271-5.965 0.928-1.484 2.807-2.649 5.637-3.498v0c1.984-0.594 3.734-0.56 5.249 0.102 1.517 0.668 2.862 1.977 4.035 3.927v0l-2.778 3.774-1.899 0.569 3.232-4.378c-1.057-1.562-2.195-2.538-3.413-2.928-1.225-0.388-2.585-0.359-4.08 0.089v0c-1.03 0.309-1.879 0.632-2.547 0.971-0.668 0.339-1.302 0.802-1.902 1.39-0.594 0.587-0.946 1.344-1.056 2.271-0.115 0.935 0.02 2.045 0.405 3.33v0c0.339 1.132 1.162 1.981 2.467 2.546 1.304 0.559 2.792 0.924 4.466 1.095 1.679 0.169 3.369 0.349 5.068 0.541 1.695 0.199 3.214 0.642 4.556 1.328 1.344 0.692 2.212 1.694 2.605 3.004v0c0.771 2.576 0.71 4.684-0.185 6.324-0.901 1.642-2.894 2.925-5.979 3.849v0c-2.525 0.756-4.657 0.844-6.398 0.263-1.748-0.585-3.213-1.865-4.393-3.841v0l0.95-0.783c1.138 1.925 2.452 3.108 3.943 3.549 1.488 0.434 3.339 0.32 5.552-0.343v0c2.468-0.739 4.156-1.765 5.067-3.076 0.918-1.308 1.014-3.173 0.289-5.597v0c-0.339-1.132-1.161-1.978-2.465-2.536-1.306-0.565-2.805-0.931-4.497-1.096-1.686-0.167-3.372-0.348-5.059-0.543-1.687-0.195-3.202-0.638-4.546-1.331-1.338-0.694-2.203-1.697-2.595-3.007zM201.821 233.242l13.113 24.969-1.075 0.565-6.557-12.485-12.837 6.742 6.557 12.485-1.067 0.56-13.113-24.968 1.066-0.561 5.997 11.418 12.837-6.742-5.997-11.418zM225.577 249.834l-0.789-0.911 11.212-9.704-21.835-12.171 9.371 24.553-0.971 0.84-10.72-28.073 26.254 14.628zM223.707 213.046l20.794 19.053-0.814 0.888-20.794-19.053zM228.065 206.979l0.66-1.007 23.587 15.462-0.661 1.007zM236.855 193.57l0.95-1.449 3.827 18.703 20.464-4.315-0.95 1.449-20.464 4.315zM245.598 172.36l26.109 10.664-0.459 1.125-13.055-5.332-5.483 13.423 13.055 5.332-0.456 1.116-26.109-10.665 0.456-1.115 11.939 4.876 5.483-13.423-11.939-4.876zM11.558 142.039c0-1.788 1.449-3.237 3.236-3.237 1.788 0 3.237 1.449 3.237 3.237 0 1.788-1.449 3.237-3.237 3.237-1.788 0-3.237-1.449-3.236-3.237zM262.519 142.039c0-1.788 1.449-3.237 3.236-3.237 1.788 0 3.237 1.449 3.237 3.237 0 1.788-1.449 3.237-3.237 3.237-1.788 0-3.237-1.449-3.236-3.237z" fill="#000000" data-fill-palette-color="primary"></path></svg></g></svg></g></svg></g></svg></g></svg><rect width="280" height="280" fill="none" stroke="none" visibility="hidden"></rect></g></svg></g></svg>